<svg xmlns="http://www.w3.org/2000/svg" width="29" height="58" viewBox="0 0 29 58"><defs><style>.a{fill:#575757;}</style></defs><path class="a" d="M25.375,10.875a10.875,10.875,0,0,0-21.75,0V33.91A14.5,14.5,0,0,0,14.4,58h.1A14.5,14.5,0,0,0,25.375,33.91ZM14.5,54.375h-.078a10.911,10.911,0,0,1-10.8-10.932A11.59,11.59,0,0,1,7.25,35.281V10.875a7.25,7.25,0,1,1,14.5,0V35.281A11.6,11.6,0,0,1,25.375,43.5,10.887,10.887,0,0,1,14.5,54.375ZM19.938,43.5a5.438,5.438,0,1,1-7.25-5.127v-27.5a1.813,1.813,0,0,1,3.625,0v27.5A5.439,5.439,0,0,1,19.938,43.5Z" transform="translate(0)"/></svg>