<svg xmlns="http://www.w3.org/2000/svg" width="66.285" height="58" viewBox="0 0 66.285 58"><defs><style>.a{fill:#575757;}</style></defs><path class="a" d="M1.036,56.812H45.566A12.436,12.436,0,1,0,33.178,43.284a1.027,1.027,0,0,0,1.036,1.087h2.1a1.05,1.05,0,0,0,1.023-.958,8.293,8.293,0,1,1,8.233,9.256H1.036A1.039,1.039,0,0,0,0,53.7v2.071A1.039,1.039,0,0,0,1.036,56.812Zm19.159,4.142H1.036A1.039,1.039,0,0,0,0,61.99v2.071A1.039,1.039,0,0,0,1.036,65.1h19.3a8.532,8.532,0,0,1,8.608,7.456,8.289,8.289,0,0,1-16.479,1.8,1.039,1.039,0,0,0-1.023-.958H9.372a1.027,1.027,0,0,0-1.036,1.087,12.428,12.428,0,0,0,24.8-1.463C32.932,66.2,26.99,60.954,20.194,60.954Zm30.977,0H31.56A16.448,16.448,0,0,1,34.977,65.1H51.314a10.669,10.669,0,0,1,10.77,9.32A10.355,10.355,0,0,1,41.825,78.3a1.037,1.037,0,0,0-1-.777H38.744a1.032,1.032,0,0,0-1.023,1.23,14.47,14.47,0,0,0,28.557-3.741C66.033,67.077,59.107,60.954,51.172,60.954Z" transform="translate(0 -31.951)"/></svg>