<svg xmlns="http://www.w3.org/2000/svg" width="72.501" height="58" viewBox="0 0 72.501 58"><defs><style>.a{fill:#575757;}</style></defs><path class="a" d="M72.059,44.2A93,93,0,0,0,60.5,18.026c-2.508-3.916-4.089-7.151-9.075-7.151a7.7,7.7,0,0,0-7.941,7.444v8.537l-5.416-3.608V.906A.907.907,0,0,0,37.156,0H35.343a.907.907,0,0,0-.907.906V23.248l-5.416,3.608V18.319a7.7,7.7,0,0,0-7.941-7.444c-4.986,0-6.567,3.235-9.074,7.151A93,93,0,0,0,.441,44.2,12.993,12.993,0,0,0,0,47.554C0,53.481,5.172,58,11.116,58c2.05,0,2.772-.325,9.826-2.215A10.561,10.561,0,0,0,29.02,45.748V35.567l-3.627,2.416v7.764A6.98,6.98,0,0,1,20,52.284c-7.3,1.954-7.481,2.091-8.888,2.091-4.129,0-7.489-3.06-7.489-6.821a9.43,9.43,0,0,1,.318-2.423,89.283,89.283,0,0,1,11.115-25.15C18.212,15,18.7,14.5,21.079,14.5a4.093,4.093,0,0,1,4.314,3.819V29.273L14.234,36.708a.907.907,0,0,0-.251,1.257l1.006,1.508a.907.907,0,0,0,1.257.251l20-13.329,20,13.328a.907.907,0,0,0,1.257-.251l1.006-1.508a.907.907,0,0,0-.251-1.257L47.107,29.272V18.319A4.093,4.093,0,0,1,51.421,14.5c2.378,0,2.867.5,6.019,5.481A89.329,89.329,0,0,1,68.554,45.13a9.431,9.431,0,0,1,.318,2.423c0,3.761-3.36,6.821-7.489,6.821-1.407,0-1.592-.137-8.887-2.091a6.98,6.98,0,0,1-5.389-6.536V37.983l-3.627-2.416V45.748a10.56,10.56,0,0,0,8.078,10.038C58.613,57.675,59.334,58,61.385,58,67.329,58,72.5,53.481,72.5,47.554A13.043,13.043,0,0,0,72.059,44.2Z"/></svg>